<svg id="Layer_1" data-name="Layer 1" xmlns="http://www.w3.org/2000/svg" xmlns:xlink="http://www.w3.org/1999/xlink" viewBox="0 0 622.55 77.19"><defs><style>.cls-1,.cls-4{fill:#fff;}.cls-1{fill-rule:evenodd;}.cls-2{mask:url(#mask);}.cls-3{isolation:isolate;}.cls-5{fill:#206ee8;}</style><mask id="mask" x="-27.45" y="-2.46" width="691.2" height="87.59" maskUnits="userSpaceOnUse"><g transform="translate(-0.45 -0.46)"><g id="mask-2"><polygon id="path-1" class="cls-1" points="-27 -2 664.2 -2 664.2 85.59 -27 85.59 -27 -2"/></g></g></mask></defs><title>poweredbysherpa-ondark</title><g id="Group"><g class="cls-2"><g id="powered-by" class="cls-3"><g class="cls-3"><path class="cls-4" d="M.45,68.39V32.59h3.8l.4,4.1a11.69,11.69,0,0,1,3.43-3.25A10.24,10.24,0,0,1,13.75,32a12,12,0,0,1,6.45,1.7,11.78,11.78,0,0,1,4.28,4.65A14.47,14.47,0,0,1,26,45a14.33,14.33,0,0,1-1.52,6.68,11.51,11.51,0,0,1-4.31,4.6A12.29,12.29,0,0,1,13.7,58a11.44,11.44,0,0,1-5.43-1.25,8.61,8.61,0,0,1-3.62-3.5V68.39Zm12.8-14a8.22,8.22,0,0,0,4.4-1.17,8.28,8.28,0,0,0,3-3.28,10.45,10.45,0,0,0,1.1-4.9,10.47,10.47,0,0,0-1.1-4.9,8,8,0,0,0-7.4-4.45,8,8,0,0,0-7.4,4.45A10.47,10.47,0,0,0,4.75,45a10.45,10.45,0,0,0,1.1,4.9,8.28,8.28,0,0,0,3,3.28A8.22,8.22,0,0,0,13.25,54.34Z" transform="translate(-0.45 -0.46)"/><path class="cls-4" d="M43.15,58a12.45,12.45,0,0,1-6.3-1.6,11.53,11.53,0,0,1-4.43-4.52A14,14,0,0,1,30.8,45a13.75,13.75,0,0,1,1.65-6.87,11.73,11.73,0,0,1,4.47-4.53A12.72,12.72,0,0,1,43.25,32a12.56,12.56,0,0,1,6.3,1.6A11.54,11.54,0,0,1,54,38.12,13.85,13.85,0,0,1,55.6,45,13.76,13.76,0,0,1,54,51.87a11.59,11.59,0,0,1-4.48,4.52A12.55,12.55,0,0,1,43.15,58Zm0-3.6a8,8,0,0,0,4-1,7.88,7.88,0,0,0,3-3.15A10.67,10.67,0,0,0,51.3,45a10.93,10.93,0,0,0-1.13-5.2,7.68,7.68,0,0,0-3-3.15,7.87,7.87,0,0,0-4-1,8,8,0,0,0-4,1,7.88,7.88,0,0,0-3,3.15A10.69,10.69,0,0,0,35.1,45a10.67,10.67,0,0,0,1.15,5.2,8,8,0,0,0,3,3.15A7.77,7.77,0,0,0,43.15,54.39Z" transform="translate(-0.45 -0.46)"/><path class="cls-4" d="M65.5,57.39l-7.25-24.8h4.2L67.7,52l5.8-19.45h4.75L84.1,52l5.2-19.45h4.25L86.3,57.39H82L75.9,36.94,69.8,57.39Z" transform="translate(-0.45 -0.46)"/><path class="cls-4" d="M108.4,58a12.16,12.16,0,0,1-6.3-1.62,11.52,11.52,0,0,1-4.33-4.53A14.12,14.12,0,0,1,96.2,45a14.39,14.39,0,0,1,1.55-6.82,11.22,11.22,0,0,1,4.32-4.55A12.54,12.54,0,0,1,108.5,32a11.6,11.6,0,0,1,6.22,1.63,11,11,0,0,1,4,4.27,12.08,12.08,0,0,1,1.4,5.7c0,.37,0,.74,0,1.1s0,.79,0,1.25H100.35a9.8,9.8,0,0,0,1.32,4.73,7.81,7.81,0,0,0,6.73,3.77,7.53,7.53,0,0,0,4.35-1.2A6.81,6.81,0,0,0,115.3,50h4.15a10.89,10.89,0,0,1-11,8Zm0-22.45a8.39,8.39,0,0,0-5.33,1.83,7.32,7.32,0,0,0-2.67,5.32H116a7.12,7.12,0,0,0-2.3-5.25A7.74,7.74,0,0,0,108.4,35.54Z" transform="translate(-0.45 -0.46)"/><path class="cls-4" d="M125.7,57.39V32.59h3.8l.35,4.75a9,9,0,0,1,3.5-3.9,10.92,10.92,0,0,1,5.8-1.45v4.4H138a10.3,10.3,0,0,0-4.05.78A6.08,6.08,0,0,0,131,39.79a10.06,10.06,0,0,0-1.1,5.1v12.5Z" transform="translate(-0.45 -0.46)"/><path class="cls-4" d="M154.05,58a12.16,12.16,0,0,1-6.3-1.62,11.45,11.45,0,0,1-4.33-4.53A14.12,14.12,0,0,1,141.85,45a14.27,14.27,0,0,1,1.55-6.82,11.22,11.22,0,0,1,4.32-4.55A12.52,12.52,0,0,1,154.15,32a11.6,11.6,0,0,1,6.22,1.63,11.08,11.08,0,0,1,4,4.27,12.08,12.08,0,0,1,1.4,5.7c0,.37,0,.74,0,1.1s0,.79,0,1.25H146a9.8,9.8,0,0,0,1.32,4.73,7.81,7.81,0,0,0,6.73,3.77,7.53,7.53,0,0,0,4.35-1.2A6.93,6.93,0,0,0,161,50h4.15a10.89,10.89,0,0,1-11,8Zm0-22.45a8.39,8.39,0,0,0-5.33,1.83,7.32,7.32,0,0,0-2.67,5.32h15.6a7.12,7.12,0,0,0-2.3-5.25A7.76,7.76,0,0,0,154.05,35.54Z" transform="translate(-0.45 -0.46)"/><path class="cls-4" d="M182.6,58a12.1,12.1,0,0,1-6.48-1.7,11.55,11.55,0,0,1-4.3-4.65,14.44,14.44,0,0,1-1.52-6.7,13.94,13.94,0,0,1,1.55-6.67,11.63,11.63,0,0,1,4.3-4.6,12.22,12.22,0,0,1,6.5-1.68,11.38,11.38,0,0,1,5.4,1.25,9.11,9.11,0,0,1,3.65,3.5V21.39h4.2v36h-3.8l-.4-4.1a11.53,11.53,0,0,1-3.45,3.25A10.22,10.22,0,0,1,182.6,58Zm.45-3.65a8.34,8.34,0,0,0,4.42-1.17,8,8,0,0,0,3-3.28,10.56,10.56,0,0,0,1.08-4.9,10.59,10.59,0,0,0-1.08-4.9,7.91,7.91,0,0,0-3-3.27,8.79,8.79,0,0,0-8.8,0,8,8,0,0,0-3,3.27A10.72,10.72,0,0,0,174.6,45a10.69,10.69,0,0,0,1.07,4.9,8.14,8.14,0,0,0,3,3.28A8.27,8.27,0,0,0,183.05,54.34Z" transform="translate(-0.45 -0.46)"/><path class="cls-4" d="M229.25,58a11.41,11.41,0,0,1-5.43-1.25,8.61,8.61,0,0,1-3.62-3.5l-.4,4.15H216v-36h4.2v15.3a11.77,11.77,0,0,1,3.42-3.25A10.27,10.27,0,0,1,229.3,32a12.08,12.08,0,0,1,6.45,1.7A11.68,11.68,0,0,1,240,38.34a14.35,14.35,0,0,1,1.53,6.7A14.21,14.21,0,0,1,240,51.72a11.42,11.42,0,0,1-4.3,4.6A12.34,12.34,0,0,1,229.25,58Zm-.45-3.65a8.24,8.24,0,0,0,4.4-1.17,8.43,8.43,0,0,0,3-3.28,10.45,10.45,0,0,0,1.1-4.9,10.47,10.47,0,0,0-1.1-4.9,8,8,0,0,0-7.4-4.45,8,8,0,0,0-7.4,4.45,10.35,10.35,0,0,0-1.1,4.9,10.33,10.33,0,0,0,1.1,4.9,8.28,8.28,0,0,0,3,3.28A8.2,8.2,0,0,0,228.8,54.34Z" transform="translate(-0.45 -0.46)"/><path class="cls-4" d="M248.1,68.39,254.25,55H252.8L243,32.59h4.55l8.2,19.3,8.7-19.3h4.35L252.5,68.39Z" transform="translate(-0.45 -0.46)"/></g></g></g><g class="cls-2"><g id="sherpa-logo-onwhite"><path id="Shape" class="cls-5" d="M609.35,27.86a13.44,13.44,0,0,1-13.64-13.53,13.65,13.65,0,1,1,27.29,0A13.44,13.44,0,0,1,609.35,27.86Zm0-20.78a7,7,0,0,0-7.07,7.31,7.08,7.08,0,0,0,14.15,0A7,7,0,0,0,609.35,7.08Z" transform="translate(-0.45 -0.46)"/><path id="Path" class="cls-4" d="M311.73,50.41c0,2.23,2.74,5.77,8.91,5.77,6.34,0,8.45-2.11,8.45-4.91s-1.26-4.28-6.22-5.08l-7.14-1.14c-9.36-1.49-14.67-5.31-14.67-12.91s6.68-14.21,19.12-14.21c13.25,0,19.13,9.36,19.13,14.67H328.63c0-2.74-3.14-5.77-8.45-5.77s-8,2.57-8,5.31c0,2.12,2.06,3.54,6.22,4.17L326,37.45c9.36,1.43,14.22,5.71,14.22,13.76,0,7.48-6.34,13.76-19.59,13.76C303.68,65,301,53.44,301,50.3h10.73Z" transform="translate(-0.45 -0.46)"/><path class="cls-4" d="M350,6.34h11.14v17h.45a15.52,15.52,0,0,1,3-2.68,17.14,17.14,0,0,1,9.42-2.68c10.22,0,17.81,7.53,17.81,19.12V64.17H380.76V38a9.77,9.77,0,1,0-19.53,0v26.2H350.1V6.34Z" transform="translate(-0.45 -0.46)"/><path class="cls-4" d="M445.33,50.81c-1,3.54-6.57,14.22-20.9,14.22-13.36,0-23.12-9.76-23.12-23.58s9.76-23.58,23.12-23.58c12.45,0,22.21,9.76,22.21,22.67a21.9,21.9,0,0,1-.28,3.19L446.19,45h-33.8c1,6.34,5.71,10.67,12,10.67,5.25,0,8.45-3,9.36-4.91h11.59Zm-9.82-13.3c-1-5.77-4.8-10.22-11.13-10.22-6.74,0-10.68,4.45-12,10.22Z" transform="translate(-0.45 -0.46)"/><path class="cls-4" d="M456.52,18.84h9.36l.92,4h.45a10.17,10.17,0,0,1,1.94-1.94,10,10,0,0,1,6.06-2.06h8.9V29.52h-8c-5.6,0-8.45,2.85-8.45,8.45v26.2H456.58V18.84Z" transform="translate(-0.45 -0.46)"/><path class="cls-4" d="M492.94,18.84h10.22l.92,4.91h.45a11.85,11.85,0,0,1,3.14-2.85A17,17,0,0,1,517.44,18c11.53,0,20.89,9.37,20.89,23.58S529,65.14,517.44,65.14a17.27,17.27,0,0,1-9.94-2.68,14.74,14.74,0,0,1-2.91-2.68h-.46V77.65H493V18.84Zm22.73,9.31c-6.74,0-11.54,4.79-11.54,13.36s4.8,13.36,11.54,13.36,11.53-4.8,11.53-13.36S522.4,28.15,515.67,28.15Z" transform="translate(-0.45 -0.46)"/><path class="cls-4" d="M576.3,59.72h-.46a13.33,13.33,0,0,1-3.14,2.68,18,18,0,0,1-9.76,2.69c-10.33,0-16.44-6.34-16.44-13.76,0-8.91,6.22-15.13,18.67-15.13h10.22v-.92c0-5-3-8.45-8-8.45s-7.53,3.2-8,5.77H548.27c1-7.48,7-14.67,19.12-14.67,11.53,0,19.13,7.65,19.13,17.35V64.17h-9.37Zm-.86-15.13h-9.36c-5.77,0-8.45,2.23-8.45,5.77s2.57,5.76,7.14,5.76c6.73,0,10.67-3.94,10.67-10.22V44.59Z" transform="translate(-0.45 -0.46)"/></g></g></g></svg>