<?xml version="1.0" encoding="utf-8"?>
<!-- Generator: Adobe Illustrator 23.0.2, SVG Export Plug-In . SVG Version: 6.00 Build 0)  -->
<svg version="1.1" id="Layer_1" xmlns="http://www.w3.org/2000/svg" xmlns:xlink="http://www.w3.org/1999/xlink" x="0px" y="0px"
	 viewBox="0 0 969.5 136" style="enable-background:new 0 0 969.5 136;" xml:space="preserve">
<style type="text/css">
	.st0{clip-path:url(#SVGID_2_);}
	.st1{clip-path:url(#SVGID_4_);fill:#207FE8;}
	.st2{fill:#222426;}
	.st3{fill:#FFE033;}
	.st4{fill:#207FE8;}
</style>
<title>sherpa-logo-ondark@1x</title>
<desc>Created with Sketch.</desc>
<g>
	<g>
		<defs>
			<path id="SVGID_1_" d="M540.8,12c-7.2,0-12.4,5.4-12.4,12.8c0,6.9,5.3,12.1,12.4,12.1c7.1,0,12.4-5.2,12.4-12.1
				C553.2,17.4,548,12,540.8,12z M540.8,48.4c-13.4,0-23.9-10.4-23.9-23.7c0-13.9,10.3-24.3,23.9-24.3c13.6,0,23.9,10.5,23.9,24.3
				C564.7,38,554.2,48.4,540.8,48.4z"/>
		</defs>
		<clipPath id="SVGID_2_">
			<use xlink:href="#SVGID_1_"  style="overflow:visible;"/>
		</clipPath>
		<g class="st0">
			<defs>
				<rect id="SVGID_3_" x="-349.3" y="-380.4" width="1651" height="895"/>
			</defs>
			<clipPath id="SVGID_4_">
				<use xlink:href="#SVGID_3_"  style="overflow:visible;"/>
			</clipPath>
			<rect x="511.9" y="-4.6" class="st1" width="57.8" height="58"/>
		</g>
	</g>
	<path class="st2" d="M19.5,87.9c0,3.9,4.8,10.1,15.6,10.1c11.1,0,14.8-3.7,14.8-8.6c0-4.8-2.2-7.5-10.9-8.9l-12.5-2
		C10.1,75.9,0.8,69.2,0.8,55.9C0.8,42.7,12.5,31,34.3,31c23.2,0,33.5,16.4,33.5,25.7H49.1c0-4.8-5.5-10.1-14.8-10.1s-14,4.5-14,9.3
		c0,3.7,3.6,6.2,10.9,7.3l13.2,2c16.4,2.5,24.9,10,24.9,24.1c0,13.1-11.1,24.1-34.3,24.1c-29.6,0-34.3-20.2-34.3-25.7h18.8V87.9z"/>
	<path class="st2" d="M86.6,10.7h19.5v29.7h0.8c1.4-1.7,3.3-3.3,5.3-4.7c3.6-2.3,9-4.7,16.5-4.7c17.9,0,31.2,13.2,31.2,33.5V112
		h-19.5V66.1c0-10.1-7-17.1-17.1-17.1s-17.1,7-17.1,17.1V112H86.7L86.6,10.7L86.6,10.7z"/>
	<path class="st2" d="M236.3,65.3c-1.7-10.1-8.4-17.9-19.5-17.9c-11.8,0-18.7,7.8-21,17.9H236.3z M253.5,88.6
		c-1.7,6.2-11.5,24.9-36.6,24.9c-23.4,0-40.5-17.1-40.5-41.3c0-24.1,17.1-41.3,40.5-41.3c21.8,0,38.9,17.1,38.9,39.7
		c0,2.3-0.3,4.2-0.5,5.6l-0.3,2.2h-59.2c1.7,11.1,10,18.7,21,18.7c9.2,0,14.8-5.3,16.4-8.6L253.5,88.6L253.5,88.6z"/>
	<path class="st2" d="M273.1,32.6h16.4l1.6,7h0.8c0.9-1.2,2-2.3,3.4-3.4c2.3-1.7,5.8-3.6,10.6-3.6h15.6v18.7h-14
		c-9.8,0-14.8,5-14.8,14.8V112h-19.5V32.6H273.1z"/>
	<path class="st2" d="M376.7,48.9c-11.8,0-20.2,8.4-20.2,23.4s8.4,23.4,20.2,23.4s20.2-8.4,20.2-23.4S388.5,48.9,376.7,48.9z
		 M336.9,32.6h17.9l1.6,8.6h0.8c1.4-1.9,3.3-3.6,5.5-5c3.7-2.5,9.2-5.1,17.1-5.1c20.2,0,36.6,16.4,36.6,41.3s-16.4,41.3-36.6,41.3
		c-8.3,0-13.9-2.3-17.4-4.7c-2-1.4-3.7-3-5.1-4.7h-0.8v31.3H337L336.9,32.6L336.9,32.6z"/>
	<path class="st2" d="M481.4,77.7H465c-10.1,0-14.8,3.9-14.8,10.1c0,6.2,4.5,10.1,12.5,10.1c11.8,0,18.7-6.9,18.7-17.9V77.7z
		 M482.9,104.2h-0.8c-1.4,1.7-3.3,3.3-5.5,4.7c-3.7,2.3-9.2,4.7-17.1,4.7c-18.1,0-28.8-11.1-28.8-24.1c0-15.6,10.9-26.5,32.7-26.5
		h17.9v-1.6c0-8.7-5.3-14.8-14-14.8c-8.7,0-13.2,5.6-14,10.1h-19.5c1.7-13.1,12.3-25.7,33.5-25.7c20.2,0,33.5,13.4,33.5,30.4V112
		h-16.4L482.9,104.2z"/>
	<g>
		<g>
			<path class="st3" d="M865.7,133.8H603.4c-1.2,0-2.2-1-2.2-2.2s1-2.2,2.2-2.2h262.3c1.2,0,2.2,1,2.2,2.2S866.9,133.8,865.7,133.8z
				"/>
		</g>
		<g>
			<path class="st4" d="M965.8,52H703.4c-1.2,0-2.2-1-2.2-2.2s1-2.2,2.2-2.2h262.3c1.2,0,2.2,1,2.2,2.2S967,52,965.8,52z"/>
		</g>
		<g>
			<path class="st2" d="M653.3,30.1V5.4h4.7l0.4,3.5c0.8-1.3,1.8-2.3,3.2-3s2.8-1.1,4.6-1.1c3.9,0,6.6,1.5,8.2,4.6
				c0.9-1.4,2.1-2.6,3.6-3.4c1.5-0.8,3.1-1.2,4.9-1.2c3.1,0,5.5,0.9,7.3,2.8c1.8,1.9,2.6,4.6,2.6,8.3v14.2h-5.3V16.4
				c0-4.8-1.8-7.2-5.5-7.2c-1.9,0-3.4,0.7-4.6,2.1c-1.2,1.4-1.8,3.4-1.8,6v12.7h-5.3V16.4c0-4.8-1.8-7.2-5.5-7.2
				c-1.8,0-3.3,0.7-4.5,2.1c-1.2,1.4-1.8,3.4-1.8,6v12.7H653.3z"/>
			<path class="st2" d="M710.4,30.7c-2.4,0-4.5-0.5-6.3-1.6c-1.9-1.1-3.4-2.6-4.5-4.5s-1.6-4.2-1.6-6.8c0-2.6,0.6-4.9,1.7-6.8
				c1.1-1.9,2.6-3.4,4.5-4.5c1.9-1.1,4-1.6,6.3-1.6c2.4,0,4.5,0.5,6.3,1.6s3.4,2.6,4.5,4.5s1.7,4.2,1.7,6.8c0,2.6-0.6,4.9-1.7,6.8
				s-2.6,3.5-4.5,4.5C714.9,30.1,712.7,30.7,710.4,30.7z M710.4,26.1c1.3,0,2.4-0.3,3.5-0.9c1.1-0.6,1.9-1.6,2.6-2.8
				c0.7-1.2,1-2.8,1-4.7s-0.3-3.4-1-4.7c-0.6-1.2-1.5-2.2-2.6-2.8c-1.1-0.6-2.2-0.9-3.5-0.9c-1.3,0-2.4,0.3-3.5,0.9
				c-1.1,0.6-1.9,1.6-2.6,2.8c-0.7,1.2-1,2.8-1,4.7s0.3,3.4,1,4.7c0.7,1.2,1.5,2.2,2.6,2.8C708,25.8,709.1,26.1,710.4,26.1z"/>
			<path class="st2" d="M734.3,30.1l-9.3-24.7h5.5l6.9,19.7l6.9-19.7h5.5l-9.2,24.7H734.3z"/>
			<path class="st2" d="M764.5,30.7c-2.4,0-4.6-0.5-6.4-1.6c-1.9-1.1-3.3-2.6-4.4-4.5s-1.6-4.2-1.6-6.7c0-2.6,0.5-4.9,1.6-6.8
				c1-2,2.5-3.5,4.4-4.6s4.1-1.6,6.5-1.6c2.4,0,4.5,0.5,6.3,1.6c1.8,1.1,3.2,2.5,4.2,4.3s1.5,3.8,1.5,5.9c0,0.3,0,0.7,0,1.1
				c0,0.4,0,0.8-0.1,1.3h-19.2c0.2,2.4,1,4.2,2.4,5.4c1.4,1.2,3,1.9,4.9,1.9c1.5,0,2.7-0.3,3.8-1c1-0.7,1.8-1.6,2.3-2.8h5.3
				c-0.7,2.3-2,4.3-4,5.8C769.8,29.9,767.4,30.7,764.5,30.7z M764.5,9.1c-1.8,0-3.3,0.5-4.7,1.6c-1.4,1-2.2,2.6-2.5,4.7h13.9
				c-0.1-1.9-0.8-3.4-2-4.6S766.4,9.1,764.5,9.1z"/>
		</g>
		<g>
			<path class="st2" d="M768.6,106V85.7h-3.5v-4.4h3.5v-3.6c0-2.7,0.7-4.6,2-5.8c1.3-1.2,3.2-1.8,5.7-1.8h2.6v4.5h-1.8
				c-1.2,0-2,0.2-2.5,0.7c-0.5,0.5-0.7,1.3-0.7,2.4v3.5h5.7v4.4h-5.7V106H768.6z"/>
			<path class="st2" d="M784.6,106V81.3h4.7l0.4,4.7c0.9-1.6,2.1-2.9,3.6-3.9c1.5-0.9,3.4-1.4,5.6-1.4v5.5h-1.4
				c-1.5,0-2.8,0.2-3.9,0.7c-1.1,0.5-2.1,1.3-2.7,2.4c-0.7,1.1-1,2.7-1,4.8V106H784.6z"/>
			<path class="st2" d="M814.4,106.6c-2.4,0-4.6-0.5-6.4-1.6c-1.9-1.1-3.3-2.6-4.4-4.5s-1.6-4.2-1.6-6.7c0-2.6,0.5-4.9,1.6-6.8
				c1-2,2.5-3.5,4.4-4.6s4.1-1.6,6.5-1.6c2.4,0,4.5,0.5,6.3,1.6c1.8,1.1,3.2,2.5,4.2,4.3s1.5,3.8,1.5,5.9c0,0.3,0,0.7,0,1.1
				c0,0.4,0,0.8-0.1,1.3h-19.2c0.2,2.4,1,4.2,2.4,5.4c1.4,1.2,3,1.9,4.9,1.9c1.5,0,2.7-0.3,3.8-1c1-0.7,1.8-1.6,2.3-2.8h5.3
				c-0.7,2.3-2,4.3-4,5.8C819.8,105.8,817.3,106.6,814.4,106.6z M814.4,85c-1.8,0-3.3,0.5-4.7,1.6c-1.4,1-2.2,2.6-2.5,4.7h13.9
				c-0.1-1.9-0.8-3.4-2-4.6S816.3,85,814.4,85z"/>
			<path class="st2" d="M843.5,106.6c-2.4,0-4.6-0.5-6.4-1.6c-1.9-1.1-3.3-2.6-4.4-4.5s-1.6-4.2-1.6-6.7c0-2.6,0.5-4.9,1.6-6.8
				c1-2,2.5-3.5,4.4-4.6s4.1-1.6,6.5-1.6c2.4,0,4.5,0.5,6.3,1.6c1.8,1.1,3.2,2.5,4.2,4.3s1.5,3.8,1.5,5.9c0,0.3,0,0.7,0,1.1
				c0,0.4,0,0.8-0.1,1.3h-19.2c0.2,2.4,1,4.2,2.4,5.4c1.4,1.2,3,1.9,4.9,1.9c1.5,0,2.7-0.3,3.8-1c1-0.7,1.8-1.6,2.3-2.8h5.3
				c-0.7,2.3-2,4.3-4,5.8C848.8,105.8,846.4,106.6,843.5,106.6z M843.5,85c-1.8,0-3.3,0.5-4.7,1.6c-1.4,1-2.2,2.6-2.5,4.7h13.9
				c-0.1-1.9-0.8-3.4-2-4.6S845.4,85,843.5,85z"/>
			<path class="st2" d="M861,106V70.1h5.3V106H861z"/>
			<path class="st2" d="M875.8,116.9l5.9-13h-1.4l-9.8-22.6h5.7l7.6,18.3l7.9-18.3h5.6l-15.9,35.6H875.8z"/>
		</g>
	</g>
</g>
</svg>
