<?xml version="1.0" encoding="UTF-8"?>
<svg width="564px" height="136px" viewBox="0 0 564 136" version="1.1" xmlns="http://www.w3.org/2000/svg" xmlns:xlink="http://www.w3.org/1999/xlink">
    <!-- Generator: Sketch 61.2 (89653) - https://sketch.com -->
    <title>sherpa-logo-allblack@1x</title>
    <desc>Created with Sketch.</desc>
    <g id="Page-1" stroke="none" stroke-width="1" fill="none" fill-rule="evenodd">
        <g id="logo-blackonly" transform="translate(-544.000000, -380.000000)" fill="#222426" fill-rule="nonzero">
            <g id="sherpa-logo-allblack" transform="translate(544.000000, 380.000000)">
                <path d="M540.1,48.8 C526.7,48.8 516.2,38.4 516.2,25.1 C516.2,11.2 526.5,0.8 540.1,0.8 C553.7,0.8 564,11.3 564,25.1 C564,38.4 553.5,48.8 540.1,48.8 Z M540.1,12.4 C532.9,12.4 527.7,17.8 527.7,25.2 C527.7,32.1 533,37.3 540.1,37.3 C547.2,37.3 552.5,32.1 552.5,25.2 C552.5,17.8 547.3,12.4 540.1,12.4 Z" id="Shape"></path>
                <path d="M18.8,88.3 C18.8,92.2 23.6,98.4 34.4,98.4 C45.5,98.4 49.2,94.7 49.2,89.8 C49.2,85 47,82.3 38.3,80.9 L25.8,78.9 C9.4,76.3 0.1,69.6 0.1,56.3 C0.1,43.1 11.8,31.4 33.6,31.4 C56.8,31.4 67.1,47.8 67.1,57.1 L48.4,57.1 C48.4,52.3 42.9,47 33.6,47 C24.3,47 19.6,51.5 19.6,56.3 C19.6,60 23.2,62.5 30.5,63.6 L43.7,65.6 C60.1,68.1 68.6,75.6 68.6,89.7 C68.6,102.8 57.5,113.8 34.3,113.8 C4.7,113.8 0,93.6 0,88.1 L18.8,88.1 L18.8,88.3 Z" id="Path"></path>
                <path d="M85.9,11.1 L105.4,11.1 L105.4,40.8 L106.2,40.8 C107.6,39.1 109.5,37.5 111.5,36.1 C115.1,33.8 120.5,31.4 128,31.4 C145.9,31.4 159.2,44.6 159.2,64.9 L159.2,112.4 L139.7,112.4 L139.7,66.5 C139.7,56.4 132.7,49.4 122.6,49.4 C112.5,49.4 105.5,56.4 105.5,66.5 L105.5,112.4 L86,112.4 L86,11.1 L85.9,11.1 Z" id="Path"></path>
                <path d="M252.8,89 C251.1,95.2 241.3,113.9 216.2,113.9 C192.8,113.9 175.7,96.8 175.7,72.6 C175.7,48.5 192.8,31.3 216.2,31.3 C238,31.3 255.1,48.4 255.1,71 C255.1,73.3 254.8,75.2 254.6,76.6 L254.3,78.8 L195.1,78.8 C196.8,89.9 205.1,97.5 216.1,97.5 C225.3,97.5 230.9,92.2 232.5,88.9 L252.8,88.9 L252.8,89 Z M235.6,65.7 C233.9,55.6 227.2,47.8 216.1,47.8 C204.3,47.8 197.4,55.6 195.1,65.7 L235.6,65.7 Z" id="Shape"></path>
                <path d="M272.4,33 L288.8,33 L290.4,40 L291.2,40 C292.1,38.8 293.2,37.7 294.6,36.6 C296.9,34.9 300.4,33 305.2,33 L320.8,33 L320.8,51.7 L306.8,51.7 C297,51.7 292,56.7 292,66.5 L292,112.4 L272.5,112.4 L272.5,33 L272.4,33 Z" id="Path"></path>
                <path d="M336.2,33 L354.1,33 L355.7,41.6 L356.5,41.6 C357.9,39.7 359.8,38 362,36.6 C365.7,34.1 371.2,31.5 379.1,31.5 C399.3,31.5 415.7,47.9 415.7,72.8 C415.7,97.7 399.3,114.1 379.1,114.1 C370.8,114.1 365.2,111.8 361.7,109.4 C359.7,108 358,106.4 356.6,104.7 L355.8,104.7 L355.8,136 L336.3,136 L336.3,33 L336.2,33 Z M376,49.3 C364.2,49.3 355.8,57.7 355.8,72.7 C355.8,87.7 364.2,96.1 376,96.1 C387.8,96.1 396.2,87.7 396.2,72.7 C396.2,57.7 387.8,49.3 376,49.3 Z" id="Shape"></path>
                <path d="M482.2,104.6 L481.4,104.6 C480,106.3 478.1,107.9 475.9,109.3 C472.2,111.6 466.7,114 458.8,114 C440.7,114 430,102.9 430,89.9 C430,74.3 440.9,63.4 462.7,63.4 L480.6,63.4 L480.6,61.8 C480.6,53.1 475.3,47 466.6,47 C457.9,47 453.4,52.6 452.6,57.1 L433.1,57.1 C434.8,44 445.4,31.4 466.6,31.4 C486.8,31.4 500.1,44.8 500.1,61.8 L500.1,112.4 L483.7,112.4 L482.2,104.6 Z M480.7,78.1 L464.3,78.1 C454.2,78.1 449.5,82 449.5,88.2 C449.5,94.4 454,98.3 462,98.3 C473.8,98.3 480.7,91.4 480.7,80.4 L480.7,78.1 L480.7,78.1 Z" id="Shape"></path>
            </g>
        </g>
    </g>
</svg>