<?xml version="1.0" encoding="UTF-8"?>
<svg width="273px" height="339px" viewBox="0 0 273 339" version="1.1" xmlns="http://www.w3.org/2000/svg" xmlns:xlink="http://www.w3.org/1999/xlink">
    <!-- Generator: Sketch 61.2 (89653) - https://sketch.com -->
    <title>sherpa-symbol-onwhite@2x</title>
    <desc>Created with Sketch.</desc>
    <defs>
        <polygon id="path-1" points="0 0 272.469 0 272.469 338.448 0 338.448"></polygon>
    </defs>
    <g id="Page-1" stroke="none" stroke-width="1" fill="none" fill-rule="evenodd">
        <g id="sherpa-symbol-onwhite" transform="translate(-334.000000, -253.000000)">
            <g transform="translate(334.000000, 253.000000)">
                <mask id="mask-2" fill="white">
                    <use xlink:href="#path-1"></use>
                </mask>
                <g id="Clip-2"></g>
                <path d="M232.1604,19.446 C220.0734,19.446 211.2984,28.53 211.2984,41.046 C211.2984,52.731 220.2654,61.542 232.1604,61.542 C244.0554,61.542 253.0224,52.731 253.0224,41.046 C253.0224,28.53 244.2474,19.446 232.1604,19.446 M232.1604,80.991 C209.5584,80.991 191.8494,63.444 191.8494,41.046 C191.8494,17.646 209.1804,0 232.1604,0 C255.1404,0 272.4714,17.646 272.4714,41.046 C272.4714,63.444 254.7624,80.991 232.1604,80.991" id="Fill-1" fill="#206EE8" mask="url(#mask-2)"></path>
                <path d="M58.392,258.1599 C58.392,270.3249 73.476,289.7889 107.052,289.7889 C141.6,289.7889 153.279,278.1099 153.279,263.0229 C153.279,247.9419 146.466,239.6679 119.217,235.2879 L80.289,228.9639 C29.196,220.6899 0,199.7649 0,158.4039 C0,117.0429 36.495,80.5479 104.619,80.5479 C177.123,80.5479 209.238,131.6409 209.238,160.8369 L150.846,160.8369 C150.846,145.7529 133.818,129.2079 104.619,129.2079 C75.423,129.2079 60.828,143.3229 60.828,158.4039 C60.828,170.0829 72.018,177.8679 94.887,181.2729 L136.248,187.5999 C187.341,195.3879 214.104,218.7429 214.104,263.0229 C214.104,303.8979 179.556,338.4489 107.052,338.4489 C14.598,338.4489 0,275.1909 0,258.1599 L58.392,258.1599 Z" id="Fill-3" fill="#222426" mask="url(#mask-2)"></path>
            </g>
        </g>
    </g>
</svg>