<?xml version="1.0" encoding="utf-8"?>
<!-- Generator: Adobe Illustrator 23.0.2, SVG Export Plug-In . SVG Version: 6.00 Build 0)  -->
<svg version="1.1" id="Layer_1" xmlns="http://www.w3.org/2000/svg" xmlns:xlink="http://www.w3.org/1999/xlink" x="0px" y="0px"
	 viewBox="0 0 969.5 136" style="enable-background:new 0 0 969.5 136;" xml:space="preserve">
<style type="text/css">
	.st0{clip-path:url(#SVGID_2_);}
	.st1{clip-path:url(#SVGID_4_);fill:#207FE8;}
	.st2{fill:#222426;}
</style>
<title>sherpa-logo-ondark@1x</title>
<desc>Created with Sketch.</desc>
<g>
	<g>
		<defs>
			<path id="SVGID_1_" d="M540.8,12c-7.2,0-12.4,5.4-12.4,12.8c0,6.9,5.3,12.1,12.4,12.1c7.1,0,12.4-5.2,12.4-12.1
				C553.2,17.4,548,12,540.8,12z M540.8,48.4c-13.4,0-23.9-10.4-23.9-23.7c0-13.9,10.3-24.3,23.9-24.3c13.6,0,23.9,10.5,23.9,24.3
				C564.7,38,554.2,48.4,540.8,48.4z"/>
		</defs>
		<clipPath id="SVGID_2_">
			<use xlink:href="#SVGID_1_"  style="overflow:visible;"/>
		</clipPath>
		<g class="st0">
			<defs>
				<rect id="SVGID_3_" x="-349.3" y="-380.4" width="1651" height="895"/>
			</defs>
			<clipPath id="SVGID_4_">
				<use xlink:href="#SVGID_3_"  style="overflow:visible;"/>
			</clipPath>
			<rect x="511.9" y="-4.6" class="st1" width="57.8" height="58"/>
		</g>
	</g>
	<path class="st2" d="M19.5,87.9c0,3.9,4.8,10.1,15.6,10.1c11.1,0,14.8-3.7,14.8-8.6c0-4.8-2.2-7.5-10.9-8.9l-12.5-2
		C10.1,75.9,0.8,69.2,0.8,55.9C0.8,42.7,12.5,31,34.3,31c23.2,0,33.5,16.4,33.5,25.7H49.1c0-4.8-5.5-10.1-14.8-10.1s-14,4.5-14,9.3
		c0,3.7,3.6,6.2,10.9,7.3l13.2,2c16.4,2.5,24.9,10,24.9,24.1c0,13.1-11.1,24.1-34.3,24.1c-29.6,0-34.3-20.2-34.3-25.7h18.8V87.9z"/>
	<path class="st2" d="M86.6,10.7h19.5v29.7h0.8c1.4-1.7,3.3-3.3,5.3-4.7c3.6-2.3,9-4.7,16.5-4.7c17.9,0,31.2,13.2,31.2,33.5V112
		h-19.5V66.1c0-10.1-7-17.1-17.1-17.1s-17.1,7-17.1,17.1V112H86.7L86.6,10.7L86.6,10.7z"/>
	<path class="st2" d="M236.3,65.3c-1.7-10.1-8.4-17.9-19.5-17.9c-11.8,0-18.7,7.8-21,17.9H236.3z M253.5,88.6
		c-1.7,6.2-11.5,24.9-36.6,24.9c-23.4,0-40.5-17.1-40.5-41.3c0-24.1,17.1-41.3,40.5-41.3c21.8,0,38.9,17.1,38.9,39.7
		c0,2.3-0.3,4.2-0.5,5.6l-0.3,2.2h-59.2c1.7,11.1,10,18.7,21,18.7c9.2,0,14.8-5.3,16.4-8.6L253.5,88.6L253.5,88.6z"/>
	<path class="st2" d="M273.1,32.6h16.4l1.6,7h0.8c0.9-1.2,2-2.3,3.4-3.4c2.3-1.7,5.8-3.6,10.6-3.6h15.6v18.7h-14
		c-9.8,0-14.8,5-14.8,14.8V112h-19.5V32.6H273.1z"/>
	<path class="st2" d="M376.7,48.9c-11.8,0-20.2,8.4-20.2,23.4s8.4,23.4,20.2,23.4s20.2-8.4,20.2-23.4S388.5,48.9,376.7,48.9z
		 M336.9,32.6h17.9l1.6,8.6h0.8c1.4-1.9,3.3-3.6,5.5-5c3.7-2.5,9.2-5.1,17.1-5.1c20.2,0,36.6,16.4,36.6,41.3s-16.4,41.3-36.6,41.3
		c-8.3,0-13.9-2.3-17.4-4.7c-2-1.4-3.7-3-5.1-4.7h-0.8v31.3H337L336.9,32.6L336.9,32.6z"/>
	<path class="st2" d="M481.4,77.7H465c-10.1,0-14.8,3.9-14.8,10.1c0,6.2,4.5,10.1,12.5,10.1c11.8,0,18.7-6.9,18.7-17.9V77.7z
		 M482.9,104.2h-0.8c-1.4,1.7-3.3,3.3-5.5,4.7c-3.7,2.3-9.2,4.7-17.1,4.7c-18.1,0-28.8-11.1-28.8-24.1c0-15.6,10.9-26.5,32.7-26.5
		h17.9v-1.6c0-8.7-5.3-14.8-14-14.8c-8.7,0-13.2,5.6-14,10.1h-19.5c1.7-13.1,12.3-25.7,33.5-25.7c20.2,0,33.5,13.4,33.5,30.4V112
		h-16.4L482.9,104.2z"/>
	<g>
		<g>
			<path d="M632.8,89.6V59.8h4.6l0.4,4.3c1-1.6,2.2-2.8,3.8-3.7c1.6-0.9,3.4-1.3,5.4-1.3c2.4,0,4.4,0.5,6.1,1.4c1.7,1,3,2.4,3.9,4.4
				c1-1.8,2.5-3.2,4.3-4.3c1.8-1,3.8-1.6,5.9-1.6c3.6,0,6.4,1.1,8.5,3.2c2.1,2.1,3.2,5.4,3.2,9.9v17.4h-5V72.7c0-3.1-0.6-5.4-1.9-7
				c-1.2-1.6-3-2.3-5.3-2.3c-2.4,0-4.4,0.9-6,2.8c-1.6,1.9-2.4,4.5-2.4,8v15.4h-5V72.7c0-3.1-0.6-5.4-1.9-7c-1.2-1.6-3-2.3-5.3-2.3
				c-2.4,0-4.3,0.9-5.9,2.8c-1.6,1.9-2.4,4.5-2.4,8v15.4H632.8z"/>
			<path d="M700.1,90.3c-2.8,0-5.3-0.6-7.6-1.9c-2.2-1.3-4-3.1-5.3-5.4c-1.3-2.3-2-5.1-2-8.2c0-3.2,0.7-5.9,2-8.2
				c1.3-2.3,3.1-4.1,5.4-5.4c2.3-1.3,4.8-1.9,7.6-1.9c2.8,0,5.3,0.6,7.6,1.9c2.2,1.3,4,3.1,5.3,5.4s2,5.1,2,8.2c0,3.2-0.7,5.9-2,8.2
				s-3.1,4.2-5.4,5.4C705.4,89.7,702.9,90.3,700.1,90.3z M700.1,86c1.7,0,3.3-0.4,4.8-1.3c1.5-0.8,2.7-2.1,3.6-3.8
				c0.9-1.7,1.4-3.8,1.4-6.2c0-2.5-0.5-4.6-1.4-6.2s-2.1-2.9-3.6-3.8c-1.5-0.8-3.1-1.3-4.7-1.3c-1.7,0-3.3,0.4-4.8,1.3
				c-1.5,0.8-2.7,2.1-3.6,3.8s-1.4,3.8-1.4,6.2c0,2.5,0.5,4.6,1.4,6.2c0.9,1.7,2.1,2.9,3.6,3.8C696.8,85.6,698.4,86,700.1,86z"/>
			<path d="M729.1,89.6l-11.3-29.8h5.3l8.9,24.9l9-24.9h5.2L735,89.6H729.1z"/>
			<path d="M763.7,90.3c-2.8,0-5.4-0.7-7.6-2c-2.2-1.3-3.9-3.1-5.2-5.4c-1.3-2.3-1.9-5.1-1.9-8.2c0-3.1,0.6-5.9,1.9-8.2
				s3-4.2,5.2-5.5c2.2-1.3,4.8-2,7.7-2c2.9,0,5.4,0.7,7.5,2c2.1,1.3,3.7,3,4.8,5.1c1.1,2.1,1.7,4.4,1.7,6.8c0,0.4,0,0.9,0,1.3
				c0,0.4,0,0.9,0,1.5H754c0.1,2.3,0.6,4.2,1.6,5.7c0.9,1.5,2.1,2.6,3.5,3.4s2.9,1.1,4.5,1.1c2.1,0,3.8-0.5,5.2-1.4
				c1.4-1,2.4-2.3,3.1-3.9h5c-0.8,2.8-2.3,5-4.6,6.9C770.1,89.4,767.2,90.3,763.7,90.3z M763.7,63.4c-2.4,0-4.5,0.7-6.4,2.2
				c-1.9,1.5-2.9,3.6-3.2,6.4h18.7c-0.1-2.7-1-4.8-2.8-6.3C768.3,64.1,766.2,63.4,763.7,63.4z"/>
			<path d="M802,89.6V64.1h-4.5v-4.3h4.5v-5.2c0-2.9,0.7-5,2.2-6.3c1.4-1.3,3.5-2,6.3-2h3v4.3h-2.2c-1.5,0-2.6,0.3-3.2,0.9
				c-0.6,0.6-1,1.7-1,3.2v5h7.3v4.3H807v25.5H802z"/>
			<path d="M820.3,89.6V59.8h4.6l0.4,5.7c0.9-2,2.3-3.5,4.2-4.7c1.9-1.2,4.2-1.7,7-1.7v5.3h-1.4c-1.8,0-3.4,0.3-4.9,0.9
				s-2.7,1.7-3.5,3.1c-0.9,1.5-1.3,3.5-1.3,6.1v15H820.3z"/>
			<path d="M854.4,90.3c-2.8,0-5.4-0.7-7.6-2c-2.2-1.3-3.9-3.1-5.2-5.4c-1.3-2.3-1.9-5.1-1.9-8.2c0-3.1,0.6-5.9,1.9-8.2
				c1.2-2.3,3-4.2,5.2-5.5c2.2-1.3,4.8-2,7.7-2c2.9,0,5.4,0.7,7.5,2c2.1,1.3,3.7,3,4.8,5.1c1.1,2.1,1.7,4.4,1.7,6.8
				c0,0.4,0,0.9,0,1.3c0,0.4,0,0.9,0,1.5h-23.7c0.1,2.3,0.7,4.2,1.6,5.7s2.1,2.6,3.5,3.4c1.4,0.8,2.9,1.1,4.5,1.1
				c2.1,0,3.8-0.5,5.2-1.4c1.4-1,2.4-2.3,3.1-3.9h5c-0.8,2.8-2.3,5-4.6,6.9S857.9,90.3,854.4,90.3z M854.4,63.4
				c-2.4,0-4.5,0.7-6.4,2.2c-1.9,1.5-2.9,3.6-3.2,6.4h18.7c-0.1-2.7-1-4.8-2.8-6.3C859.1,64.1,856.9,63.4,854.4,63.4z"/>
			<path d="M888.6,90.3c-2.8,0-5.4-0.7-7.6-2c-2.2-1.3-3.9-3.1-5.2-5.4c-1.3-2.3-1.9-5.1-1.9-8.2c0-3.1,0.6-5.9,1.9-8.2
				c1.2-2.3,3-4.2,5.2-5.5c2.2-1.3,4.8-2,7.7-2c2.9,0,5.4,0.7,7.5,2c2.1,1.3,3.7,3,4.8,5.1c1.1,2.1,1.7,4.4,1.7,6.8
				c0,0.4,0,0.9,0,1.3c0,0.4,0,0.9,0,1.5h-23.7c0.1,2.3,0.7,4.2,1.6,5.7c0.9,1.5,2.1,2.6,3.5,3.4c1.4,0.8,2.9,1.1,4.5,1.1
				c2.1,0,3.8-0.5,5.2-1.4c1.4-1,2.4-2.3,3.1-3.9h5c-0.8,2.8-2.3,5-4.6,6.9S892.1,90.3,888.6,90.3z M888.6,63.4
				c-2.4,0-4.5,0.7-6.4,2.2c-1.9,1.5-2.9,3.6-3.2,6.4h18.7c-0.1-2.7-1-4.8-2.8-6.3C893.2,64.1,891.1,63.4,888.6,63.4z"/>
			<path d="M909.3,89.6V46.4h5v43.2H909.3z"/>
			<path d="M925.9,102.8l7.4-16.1h-1.7l-11.8-26.9h5.5L935,83l10.4-23.2h5.2l-19.5,43H925.9z"/>
		</g>
	</g>
</g>
</svg>
