<?xml version="1.0" encoding="UTF-8"?>
<svg width="20px" height="20px" viewBox="0 0 20 20" version="1.1" xmlns="http://www.w3.org/2000/svg" xmlns:xlink="http://www.w3.org/1999/xlink">
    <title>plane_trip/vector</title>
    <g id="plane_trip/vector" stroke="none" stroke-width="1" fill="none" fill-rule="evenodd">
        <path d="M12.7203704,9.05116561 L12.8,9.1 L14.8,10.6 L14.8561555,10.6511125 L16.3384278,10.1590654 C17.5046361,9.78053388 18.7832522,10.2535674 18.9809977,11.3585957 L19,11.5 L19.0015548,11.7901187 C18.9864486,12.6757958 18.7107959,13.2737043 17.7236068,13.9472136 L17.7236068,13.9472136 L15.909,14.854 L14.9743416,17.6581139 C14.9407941,17.7587565 14.8763617,17.84544 14.7912032,17.9064515 L14.7912032,17.9064515 L14.7236068,17.9472136 L12.7236068,18.9472136 C12.3911563,19.1134389 12,18.871691 12,18.5 L12,18.5 L11.999,16.194 L9.65811388,16.9743416 C9.49280598,17.0294443 9.31300741,16.9940559 9.18169552,16.8856201 L9.18169552,16.8856201 L9.1203717,16.8253957 L6.1203717,13.3253957 C5.90867865,13.0784205 5.98544894,12.6982585 6.2763932,12.5527864 L6.2763932,12.5527864 L8.2763932,11.5527864 C8.46888753,11.4565392 8.70137326,11.4942665 8.85355339,11.6464466 L8.85355339,11.6464466 L9.632,12.425 L11.1881555,11.8951125 L10.1464466,10.8535534 C9.92706425,10.634171 9.96168081,10.2780108 10.199126,10.1003984 L10.2763932,10.0527864 L12.2763932,9.0527864 C12.4175532,8.9822064 12.5818479,8.98313611 12.7203704,9.05116561 Z M18.0021501,11.546319 C17.9645917,11.1426303 17.3264023,10.8897438 16.6471552,11.110216 L16.6471552,11.110216 L16.0627075,11.3016274 L9.66186439,13.473075 C9.48132681,13.5348466 9.28137169,13.4884785 9.14644661,13.3535534 L9.14644661,13.3535534 L8.401,12.608 L7.296,13.161 L9.66,15.919 L12.3418861,15.0256584 C12.6386712,14.92673 12.9443488,15.12098 12.993234,15.4169136 L12.993234,15.4169136 L13,15.5 L12.999,17.691 L14.09,17.145 L15.0256584,14.3418861 C15.0592059,14.2412435 15.1236383,14.15456 15.2087968,14.0935485 L15.2087968,14.0935485 L15.2763932,14.0527864 L17.2166466,13.0880403 C17.8919702,12.6235403 18.0130732,12.3128051 18.0015887,11.6375997 L18.0015887,11.6375997 L18.000943,11.5983588 Z M10.5085756,1.46493701 C13.4414169,2.59074931 15.2515413,5.47802364 14.9983,8.54119591 C14.9755481,8.8163994 14.7340076,9.02105188 14.4588041,8.99830001 C14.1836006,8.97554814 13.9789481,8.73400759 14.0017,8.45880409 C14.1284956,6.92510143 13.650055,5.44193044 12.7267273,4.28171761 L12.062,5.941 L12.9160251,7.2226499 C13.0521818,7.42688487 13.018254,7.69485937 12.8476627,7.85946839 L12.7773501,7.91602515 C12.5731151,8.0521818 12.3051406,8.01825397 12.1405316,7.84766266 L12.0839749,7.7773501 L11.0839749,6.2773501 C11.0109105,6.16775353 10.9847574,6.03500057 11.0085269,5.90801271 L11.0357617,5.81430466 L11.9660927,3.48744039 C11.4422248,3.03205335 10.8316423,2.66009567 10.1502077,2.39851744 C8.26786325,1.6759531 6.24596734,1.96510917 4.6837233,2.99920313 L6,3 L6.18569534,3.03576165 L8.68569534,4.03576165 C8.84840607,4.10084595 8.96310183,4.24522039 8.99255142,4.41389328 L9,4.5 L9,7.5 C9,7.65782169 8.92569362,7.80435556 8.80289704,7.89783013 L8.7236068,7.9472136 L6.909,8.854 L5.97434165,11.6581139 C5.94079412,11.7587565 5.87636172,11.84544 5.79120315,11.9064515 L5.7236068,11.9472136 L3.87904351,12.8707643 C4.39183614,13.3706715 4.99659699,13.7711892 5.67918397,14.0332098 C5.93698509,14.1321704 6.06575079,14.4213829 5.96679021,14.679184 C5.86782964,14.9369851 5.57861714,15.0657508 5.32081603,14.9667902 C1.77715466,13.6065061 0.0510159125,9.17481475 1.46493701,5.49142435 C2.85038509,1.88220873 6.89936002,0.0794889411 10.5085756,1.46493701 Z M2.39851744,5.8497923 C1.58516858,7.96863853 1.97437219,10.3775119 3.21060382,12.0932648 L3.2763932,12.0527864 L5.09,11.145 L6.02565835,8.34188612 C6.05920588,8.24124354 6.12363828,8.15455996 6.20879685,8.09354848 L6.2763932,8.0527864 L8,7.19 L8,4.838 L5.904,4 L3.52654655,3.99904044 C3.05394043,4.52726149 2.66761387,5.14877214 2.39851744,5.8497923 Z M12.447,10.085 L11.344,10.637 L12.2431555,11.5361125 L13.7151555,11.0361125 L12.447,10.085 Z" id="Path-176" fill="#00123F" fill-rule="nonzero"></path>
    </g>
</svg>