<?xml version="1.0" encoding="UTF-8"?>
<svg width="20px" height="20px" viewBox="0 0 20 20" version="1.1" xmlns="http://www.w3.org/2000/svg" xmlns:xlink="http://www.w3.org/1999/xlink">
    <title>health document/vector</title>
    <g id="health-document/vector" stroke="none" stroke-width="1" fill="none" fill-rule="evenodd">
        <path d="M15,1 C15.1326082,1 15.2597852,1.05267842 15.3535534,1.14644661 L15.3535534,1.14644661 L17.8535534,3.64644661 C17.9473216,3.7402148 18,3.86739176 18,4 L18,4 L18,16.4990607 C18,17.8792918 16.8837443,19 15.5081158,19 L15.5081158,19 L4.49188419,19 C3.11353528,19 2,17.8839611 2,16.4998938 L2,16.4998938 L2,3.50010618 C2,2.11881493 3.12334578,1 4.50834125,1 L4.50834125,1 Z M14,1.999 L4.50834125,2 C3.67472784,2 3,2.67200642 3,3.50010618 L3,3.50010618 L3,16.4998938 C3,17.3321785 3.6663234,18 4.49188419,18 L4.49188419,18 L15.5081158,18 C16.3305665,18 17,17.3278963 17,16.4990607 L17,16.4990607 L17,5 L14.5,5 C14.2545401,5 14.0503916,4.82312484 14.0080557,4.58987563 L14,4.5 L14,1.999 Z M11.5,15 C11.7761424,15 12,15.2238576 12,15.5 C12,15.7454599 11.8231248,15.9496084 11.5898756,15.9919443 L11.5,16 L5.5,16 C5.22385763,16 5,15.7761424 5,15.5 C5,15.2545401 5.17687516,15.0503916 5.41012437,15.0080557 L5.5,15 L11.5,15 Z M14.5,13 C14.7761424,13 15,13.2238576 15,13.5 C15,13.7454599 14.8231248,13.9496084 14.5898756,13.9919443 L14.5,14 L5.5,14 C5.22385763,14 5,13.7761424 5,13.5 C5,13.2545401 5.17687516,13.0503916 5.41012437,13.0080557 L5.5,13 L14.5,13 Z M9.5,4 C9.77614237,4 10,4.22385763 10,4.5 L10,4.5 L10,6 L11.5,6 C11.7454599,6 11.9496084,6.17687516 11.9919443,6.41012437 L11.9919443,6.41012437 L12,6.5 L12,8.5 C12,8.77614237 11.7761424,9 11.5,9 L11.5,9 L9.999,9 L10,10.5 C10,10.7454599 9.82312484,10.9496084 9.58987563,10.9919443 L9.58987563,10.9919443 L9.5,11 L7.5,11 C7.22385763,11 7,10.7761424 7,10.5 L7,10.5 L6.999,8.999 L5.5,9 C5.25454011,9 5.05039163,8.82312484 5.00805567,8.58987563 L5.00805567,8.58987563 L5,8.5 L5,6.5 C5,6.22385763 5.22385763,6 5.5,6 L5.5,6 L7,6 L7,4.5 C7,4.25454011 7.17687516,4.05039163 7.41012437,4.00805567 L7.41012437,4.00805567 L7.5,4 Z M9,5 L8,5 L8,6.5 C8,6.74545989 7.82312484,6.94960837 7.58987563,6.99194433 L7.58987563,6.99194433 L7.5,7 L6,7 L6,7.999 L7.5,8 C7.74545989,8 7.94960837,8.17687516 7.99194433,8.41012437 L7.99194433,8.41012437 L8,8.5 L7.999,10 L8.999,10 L9,8.5 C9,8.25454011 9.17687516,8.05039163 9.41012437,8.00805567 L9.41012437,8.00805567 L9.5,8 L11,8 L11,7 L9.5,7 C9.25454011,7 9.05039163,6.82312484 9.00805567,6.58987563 L9.00805567,6.58987563 L9,6.5 L9,5 Z M15,2.207 L15,4 L16.793,4 L15,2.207 Z" id="Combined-Shape" fill="#00123F" fill-rule="nonzero"></path>
    </g>
</svg>