<?xml version="1.0" encoding="UTF-8"?>
<svg width="20px" height="20px" viewBox="0 0 20 20" version="1.1" xmlns="http://www.w3.org/2000/svg" xmlns:xlink="http://www.w3.org/1999/xlink">
    <title>visa/vector</title>
    <g id="visa/vector" stroke="none" stroke-width="1" fill="none" fill-rule="evenodd">
        <path d="M4.25377325,4.06337166 L4.28819652,4.04694571 C4.30467514,4.03922867 4.32164393,4.03238419 4.33904339,4.02647177 L4.33862225,4.02669769 L13.3418609,1.02563886 C13.6656265,0.917717009 13.9999748,1.15870165 13.9999748,1.49998051 L13.9995374,3.99959719 L14.5,4 C15.3284271,4 16,4.67157288 16,5.5 L16,17.5 C16,18.3284271 15.3284271,19 14.5,19 L4.5,19 C4.22385763,19 4,18.7761424 4,18.5 L4.00049363,4.46185309 C4.01020831,4.30402365 4.09128036,4.15052476 4.25377325,4.06337166 Z M14.5,5 L5,5 L5,18 L14.5,18 C14.7761424,18 15,17.7761424 15,17.5 L15,5.5 C15,5.22385763 14.7761424,5 14.5,5 Z M12.5,15 C12.7761424,15 13,15.2238576 13,15.5 C13,15.7761424 12.7761424,16 12.5,16 L12.5,16 L7.5,16 C7.22385763,16 7,15.7761424 7,15.5 C7,15.2238576 7.22385763,15 7.5,15 L7.5,15 Z M10,6 C12.209139,6 14,7.790861 14,10 C14,12.209139 12.209139,14 10,14 L10,14 L9.80035966,13.9951047 C7.68396847,13.8910789 6,12.1421954 6,10 C6,7.790861 7.790861,6 10,6 Z M10.9349192,10.9813651 L10.6683829,10.9905576 C10.4545529,10.9968723 10.2317815,11 10,11 C9.67004348,11 9.35834638,10.9936615 9.06471051,10.9808138 C9.22568115,12.1688519 9.6530097,13 10,13 L10,13 L10.0575921,12.9926205 C10.3929316,12.9080275 10.7831017,12.1039112 10.9349192,10.9813651 Z M7.08954357,10.7340487 L7.12262784,10.8517282 C7.33414858,11.5674132 7.80541536,12.1716247 8.42725409,12.5551886 C8.24095336,12.0822313 8.11039847,11.5174265 8.04600123,10.9012226 C7.69099353,10.859567 7.37242602,10.803899 7.08954357,10.7340487 Z M12.9097599,10.7331958 L12.8095503,10.7580183 C12.5525376,10.8167302 12.2676844,10.8644436 11.9545953,10.9014993 C11.8896015,11.5174265 11.7590466,12.0822313 11.5715469,12.556011 C12.2281372,12.1512801 12.7169052,11.5009791 12.9097599,10.7331958 Z M10,7 L9.94240786,7.00737954 C9.51561212,7.11504335 9,8.38821587 9,10 L8.99862587,9.97637962 C9.30722993,9.99203168 9.64113135,10 10,10 C10.3588687,10 10.6927701,9.99203168 11.0013741,9.97637962 C10.9946079,8.30239478 10.4343596,7 10,7 L10,7 Z M11.5717545,7.44420013 L11.6235458,7.58175553 C11.8665141,8.25704393 12,9.0975395 12,10 L11.9994044,9.88775018 C12.392474,9.83438056 12.720809,9.76250817 12.9830889,9.67327117 C12.8797674,8.72952074 12.34081,7.91815865 11.5717545,7.44420013 Z M8.42774215,7.4457865 L8.39173545,7.46706391 C7.64216083,7.9439941 7.11860283,8.74450558 7.01773277,9.67192703 C7.279191,9.76250817 7.60752597,9.83438056 8.00059562,9.88775018 C8.01217997,8.96591918 8.16317287,8.11514662 8.42774215,7.4457865 Z M12.9999748,2.19369345 L7.58111364,3.99998051 L12.9999748,3.99998051 L12.9999748,2.19369345 Z" id="Path-147" fill="#00123F" fill-rule="nonzero"></path>
    </g>
</svg>